<?xml version="1.0" standalone="no"?>
<!DOCTYPE svg PUBLIC "-//W3C//DTD SVG 20010904//EN"
 "http://www.w3.org/TR/2001/REC-SVG-20010904/DTD/svg10.dtd">
<svg version="1.0" xmlns="http://www.w3.org/2000/svg"
 width="519.000000pt" height="519.000000pt" viewBox="0 0 519.000000 519.000000"
 preserveAspectRatio="xMidYMid meet">
<metadata>
Created by potrace 1.14, written by Peter Selinger 2001-2017
</metadata>
<g transform="translate(0.000000,519.000000) scale(0.100000,-0.100000)"
fill="#000000" stroke="none">
<path d="M2409 5066 c-2 -2 -33 -6 -69 -10 -159 -15 -178 -18 -320 -56 -63
-17 -122 -32 -130 -34 -57 -14 -237 -88 -355 -146 -128 -63 -325 -183 -333
-202 -2 -4 -8 -8 -13 -8 -10 0 -10 -1 -159 -127 -267 -228 -509 -558 -639
-873 -13 -30 -29 -68 -36 -85 -16 -37 -74 -214 -80 -244 -2 -12 -7 -31 -10
-41 -15 -48 -53 -250 -62 -332 -10 -89 -10 -461 0 -541 12 -102 37 -233 63
-334 14 -54 27 -105 29 -113 5 -25 46 -142 62 -180 8 -19 19 -44 23 -55 132
-322 391 -680 650 -897 25 -21 52 -43 60 -50 94 -81 254 -186 405 -268 118
-64 386 -168 476 -185 12 -2 36 -9 53 -14 43 -13 161 -36 246 -47 25 -3 56 -7
70 -10 14 -2 107 -7 208 -10 l182 -7 34 36 c29 31 33 41 30 78 -4 51 -29 120
-61 171 -13 21 -23 41 -23 44 0 17 -111 157 -174 219 -122 121 -171 139 -404
150 -228 11 -289 15 -402 30 -207 27 -355 108 -446 245 -105 156 -103 344 6
430 21 16 41 30 44 30 4 0 13 5 20 12 15 15 9 29 -52 111 l-43 58 -46 -33
c-84 -61 -131 -117 -161 -193 -33 -84 -40 -143 -29 -240 21 -173 121 -344 266
-455 31 -24 166 -99 177 -98 2 0 28 -7 57 -16 66 -19 149 -37 190 -42 155 -15
290 -24 436 -29 119 -4 139 -8 175 -29 47 -28 152 -131 175 -172 9 -16 19 -31
22 -34 12 -9 67 -108 63 -112 -5 -6 -171 1 -214 8 -19 4 -58 8 -87 10 -28 1
-69 7 -90 13 -21 5 -54 12 -73 15 -19 3 -80 19 -135 35 -289 84 -555 221 -785
404 -76 60 -293 275 -342 338 -23 30 -47 60 -77 96 -6 6 -42 62 -81 125 -64
101 -120 208 -178 338 -43 98 -122 354 -137 441 -3 19 -8 45 -10 59 -3 14 -8
45 -10 70 -3 25 -9 72 -12 105 -9 73 -9 381 0 450 3 28 9 77 12 110 4 33 9 63
11 66 2 3 6 21 9 40 18 99 65 266 109 380 27 72 90 215 105 239 6 8 22 37 37
65 32 60 144 232 170 262 39 44 54 63 54 69 0 3 19 24 42 48 24 24 59 61 79
82 126 137 322 293 489 388 36 20 72 41 80 46 73 43 372 164 390 158 6 -2 4
-15 -5 -30 -7 -16 -12 -28 -10 -28 3 0 0 -11 -5 -25 -21 -56 -31 -190 -18
-250 11 -48 45 -125 56 -125 5 0 32 11 60 25 29 14 56 25 62 25 5 0 0 21 -12
48 -34 78 -24 202 27 318 34 78 62 100 142 113 133 22 313 36 313 25 0 -3 -13
-24 -28 -47 -24 -36 -75 -132 -77 -147 -1 -3 -9 -30 -18 -60 -9 -30 -18 -83
-21 -117 l-4 -63 31 -1 c18 0 52 -2 77 -2 43 -2 45 -1 46 28 5 117 54 244 118
308 33 33 136 90 161 89 36 -1 129 -13 175 -22 30 -7 70 -15 89 -19 l34 -6
-27 -32 c-15 -17 -41 -62 -58 -100 -33 -72 -80 -203 -73 -203 3 0 0 -12 -6
-27 -12 -32 -21 -69 -23 -97 -1 -20 22 -30 113 -50 23 -5 22 -7 66 144 18 63
40 129 49 145 9 17 16 35 16 41 0 24 54 63 111 83 l61 20 61 -23 c65 -25 212
-96 287 -139 38 -23 42 -27 25 -33 -11 -4 -22 -10 -25 -14 -3 -3 -21 -16 -40
-28 -19 -11 -47 -33 -62 -47 -15 -14 -29 -25 -31 -25 -9 0 -120 -111 -150
-152 -34 -45 -87 -147 -87 -166 0 -10 128 -68 134 -61 1 2 18 33 35 69 48 96
203 245 300 289 39 17 54 18 129 9 20 -2 148 -113 251 -218 217 -221 389 -488
496 -769 41 -109 97 -293 100 -326 1 -11 5 -34 10 -50 17 -66 34 -198 41 -330
13 -241 -12 -497 -67 -702 -11 -40 -22 -80 -23 -90 -14 -71 -135 -353 -205
-477 -46 -82 -175 -271 -201 -296 -3 -3 -32 -36 -65 -75 -59 -68 -166 -176
-221 -225 -47 -41 -228 -172 -293 -212 -116 -73 -338 -181 -346 -168 -8 13 3
175 15 221 7 24 13 49 15 54 10 43 52 129 72 147 10 10 50 27 87 38 83 26 129
52 196 109 112 96 191 238 238 431 30 120 43 301 29 420 -11 96 -35 198 -48
203 -2 0 -43 -9 -91 -22 -83 -23 -87 -25 -76 -45 6 -11 10 -22 9 -24 -2 -2 2
-24 15 -82 19 -79 -3 -395 -30 -439 -3 -4 -7 -19 -10 -33 -7 -39 -70 -171 -97
-203 -64 -75 -129 -119 -206 -139 -142 -38 -224 -137 -273 -331 -28 -109 -35
-162 -34 -282 0 -113 16 -164 61 -197 29 -21 81 -25 116 -8 12 6 56 25 97 44
459 201 817 497 1086 901 82 123 179 308 234 447 38 96 103 304 115 368 3 15
7 38 10 52 3 14 8 41 11 60 2 19 7 46 9 60 16 89 20 170 20 365 0 121 -3 250
-8 286 -10 87 -44 263 -67 349 -7 25 -14 52 -15 60 -7 29 -63 186 -90 250 -41
99 -121 253 -176 342 -27 44 -49 83 -49 88 0 5 -4 10 -8 12 -4 2 -35 39 -67
83 -85 113 -96 126 -225 255 -130 130 -160 157 -245 220 -33 25 -61 48 -63 53
-2 4 -9 7 -16 7 -7 0 -21 9 -31 20 -10 11 -22 20 -26 20 -4 0 -27 13 -51 29
-161 109 -500 254 -668 287 -14 3 -43 10 -65 16 -60 15 -103 24 -175 33 -25 3
-61 8 -80 11 -40 7 -445 15 -451 10z"/>
<path d="M1999 4196 c-2 -3 -16 -7 -29 -9 -30 -5 -46 -11 -129 -48 -255 -116
-507 -408 -651 -754 -40 -98 -87 -241 -95 -292 -3 -21 -7 -45 -10 -53 -9 -31
-16 -118 -15 -195 0 -130 11 -179 52 -255 47 -85 124 -146 223 -177 46 -14
192 -10 208 6 6 6 18 11 27 11 8 0 33 12 54 26 35 24 42 25 60 13 86 -54 167
-83 231 -82 51 2 120 20 167 45 59 31 148 112 148 135 0 7 3 13 8 13 4 0 12
12 19 28 96 225 0 472 -214 552 -55 20 -150 28 -200 16 -28 -6 -28 -6 -2 41
85 152 221 286 434 427 l100 67 57 112 c74 145 73 140 45 132 -165 -46 -437
-223 -607 -396 -73 -74 -180 -207 -180 -223 0 -3 -15 -31 -34 -63 -18 -32 -41
-80 -51 -106 -16 -41 -21 -48 -39 -42 -88 27 -195 33 -223 12 -7 -5 -13 -6
-13 -3 0 4 -9 2 -20 -4 -11 -6 -20 -7 -20 -2 0 10 18 67 30 97 14 33 23 59 26
73 4 21 104 214 141 271 85 133 214 270 321 342 40 27 78 49 83 49 8 0 119
217 119 233 0 8 -14 9 -21 3z"/>
<path d="M3741 3638 c-42 -11 -137 -75 -171 -115 -49 -57 -62 -90 -59 -156 5
-110 5 -110 58 -102 81 12 116 17 129 18 12 0 11 20 -2 100 0 4 19 22 42 40
41 30 49 32 130 32 99 0 154 -21 207 -80 61 -67 88 -217 59 -328 -7 -26 -13
-50 -13 -52 -22 -89 -88 -176 -161 -211 -22 -10 -40 -22 -40 -26 0 -5 -6 -8
-14 -8 -7 0 -47 -22 -87 -48 -73 -48 -148 -120 -185 -177 -10 -17 -22 -32 -25
-35 -22 -17 -55 -181 -50 -245 1 -7 37 -10 93 -10 l93 0 3 55 c4 61 24 112 59
150 13 14 23 27 23 30 0 11 95 78 155 111 33 17 72 40 87 51 14 10 29 18 33
18 4 0 33 26 65 59 62 64 111 153 135 246 89 338 -35 606 -314 680 -57 15
-198 17 -250 3z"/>
<path d="M2770 1979 c-31 -103 -74 -174 -155 -255 -77 -77 -155 -133 -255
-181 -80 -39 -206 -81 -268 -89 -26 -3 -67 -9 -93 -13 -51 -8 -209 -6 -254 3
-16 3 -46 8 -65 11 -20 3 -57 11 -83 19 -26 8 -49 11 -51 8 -4 -7 -26 -84 -31
-112 -2 -8 -6 -27 -10 -42 -7 -27 0 -33 27 -29 4 0 18 -3 31 -8 13 -5 41 -12
61 -15 21 -4 41 -8 45 -10 13 -8 140 -19 221 -19 77 0 178 8 227 18 162 33
331 99 447 173 110 71 178 135 285 268 45 55 128 262 117 290 -3 8 -13 14 -23
14 -10 0 -45 9 -77 20 -33 11 -62 20 -67 20 -4 0 -17 -32 -29 -71z"/>
</g>
</svg>
